<svg width="34" height="33" viewBox="0 0 34 33" fill="none" xmlns="http://www.w3.org/2000/svg">
<circle cx="7.39941" cy="27.5835" r="0.485591" fill="#E3B873"/>
<circle cx="9.45752" cy="29.272" r="0.485591" fill="#E3B873"/>
<circle cx="11.8061" cy="30.5107" r="0.485591" fill="#E3B873"/>
<circle cx="14.355" cy="31.3032" r="0.485591" fill="#E3B873"/>
<path d="M4.99989 27.2668L4.99989 25L7.26392 25" stroke="#E3B873" stroke-linecap="round" stroke-linejoin="round"/>
<path d="M28.3941 25.4512C27.2528 27.2314 25.1271 28.9696 23.3984 29.9241C21.5645 30.9366 19.5997 31.5071 16.9826 31.6435" stroke="#E3B873" stroke-linecap="round"/>
<circle cx="26.614" cy="5.20527" r="0.485591" transform="rotate(-180 26.614 5.20527)" fill="#E3B873"/>
<circle cx="24.5559" cy="3.51679" r="0.485591" transform="rotate(-180 24.5559 3.51679)" fill="#E3B873"/>
<circle cx="22.2073" cy="2.27802" r="0.485591" transform="rotate(-180 22.2073 2.27802)" fill="#E3B873"/>
<circle cx="19.6585" cy="1.48554" r="0.485591" transform="rotate(-180 19.6585 1.48554)" fill="#E3B873"/>
<path d="M29.0135 5.52191L29.0135 7.78873L26.7495 7.78873" stroke="#E3B873" stroke-linecap="round" stroke-linejoin="round"/>
<path d="M5.61935 7.33751C6.76059 5.55732 8.88628 3.81916 10.615 2.8647C12.4489 1.85218 14.4137 1.28161 17.0308 1.14525" stroke="#E3B873" stroke-linecap="round"/>
<path d="M22.4261 12.5602L17.5806 11.1064C17.2169 10.9979 16.843 10.9597 16.4726 10.9732V10.9608H10.5833L0.139648 7.49023L0.171223 22.1652L3.1692 23.6637L4.94426 19.3243L7.53734 20.3617L8.20969 18.6814L9.18345 19.6551L8.27496 20.5639C7.95921 20.8796 7.77826 21.3164 7.77826 21.7632C7.77826 22.6775 8.50739 23.421 9.41429 23.4531C9.44586 24.3393 10.1583 25.0517 11.0445 25.0833C11.0761 25.9695 11.7885 26.6819 12.6747 26.7135C12.7073 27.6204 13.4502 28.3495 14.3648 28.3495C14.8114 28.3495 15.2484 28.1685 15.5639 27.8528L16.4726 26.9443L16.8377 27.3094C17.1535 27.6251 17.5902 27.8061 18.037 27.8061C18.9516 27.8061 19.6948 27.077 19.7269 26.1701C20.6131 26.1385 21.3255 25.4261 21.3571 24.5399C22.2433 24.5083 22.9557 23.7959 22.9873 22.9097C23.8942 22.877 24.6236 22.1341 24.6236 21.2198C24.6236 21.1426 24.6111 21.0664 24.6008 20.9897L25.3806 20.2099L26.0107 21.4708L29.424 19.7639L31.4866 23.702L33.8613 22.1195V8.07476L22.4261 12.5602ZM2.60616 22.1673L1.25696 21.4925L1.22963 8.99758L7.18418 10.9767L2.60616 22.1673ZM6.93212 18.9488L5.35526 18.3184L8.21791 11.32L9.77567 11.8379L6.93212 18.9488ZM8.86506 21.7632C8.86506 21.6027 8.92953 21.4458 9.04309 21.332L9.99855 20.3768C10.1121 20.2633 10.2692 20.1985 10.4294 20.1985C10.7654 20.1985 11.0386 20.4721 11.0386 20.8077C11.0386 20.968 10.9739 21.1251 10.8603 21.2386L9.90515 22.1941C9.79159 22.3076 9.63451 22.3721 9.47425 22.3721C9.13835 22.3721 8.86506 22.0988 8.86506 21.7632ZM10.4952 23.3934C10.4952 23.2328 10.5597 23.076 10.6733 22.9622L11.6287 22.007C11.7423 21.8935 11.8994 21.8287 12.0596 21.8287C12.3955 21.8287 12.6688 22.1023 12.6688 22.4379C12.6688 22.5982 12.6041 22.7553 12.4905 22.8688L11.5353 23.8243C11.4218 23.9378 11.2647 24.0023 11.1044 24.0023C10.7685 24.0023 10.4952 23.729 10.4952 23.3934ZM12.1254 25.0236C12.1254 24.863 12.1899 24.7062 12.3035 24.5924L13.2589 23.6372C13.3725 23.5237 13.5296 23.4589 13.6898 23.4589C14.0257 23.4589 14.299 23.7325 14.299 24.0681C14.299 24.2284 14.2343 24.3854 14.1207 24.499L13.1655 25.4545C13.052 25.568 12.8949 25.6325 12.7346 25.6325C12.3987 25.6325 12.1254 25.3592 12.1254 25.0236ZM15.7509 26.1292L14.7957 27.0847C14.6822 27.1982 14.5251 27.2627 14.3648 27.2627C14.0289 27.2627 13.7556 26.9894 13.7556 26.6538C13.7556 26.4932 13.8201 26.3364 13.9337 26.2226L14.8891 25.2674C15.0027 25.1538 15.1598 25.0891 15.32 25.0891C15.6559 25.0891 15.9292 25.3627 15.9292 25.6983C15.9292 25.8586 15.8645 26.0156 15.7509 26.1292ZM22.9276 21.8287C22.7673 21.8287 22.6103 21.7642 22.4967 21.6507L17.9436 17.0973L17.1752 17.8657L21.7283 22.4188C21.8419 22.5326 21.9066 22.6895 21.9066 22.85C21.9066 23.1856 21.6333 23.4589 21.2974 23.4589C21.1371 23.4589 20.9801 23.3944 20.8665 23.2809L16.3134 18.7275L15.545 19.4959L20.0981 24.049C20.2117 24.1628 20.2764 24.3196 20.2764 24.4802C20.2764 24.8158 20.0031 25.0891 19.6672 25.0891C19.5069 25.0891 19.3499 25.0246 19.2363 24.9111L14.6832 20.3577L13.9148 21.1261L18.4679 25.6792C18.5815 25.793 18.6462 25.9498 18.6462 26.1104C18.6462 26.446 18.3729 26.7193 18.037 26.7193C17.8768 26.7193 17.7197 26.6548 17.6061 26.5413L16.9932 25.9281C17.0041 25.8522 17.016 25.776 17.016 25.6983C17.016 24.7837 16.2866 24.0405 15.3797 24.0084C15.3482 23.1222 14.6357 22.4098 13.7495 22.3782C13.718 21.492 13.0055 20.7796 12.1193 20.748C12.0867 19.8411 11.344 19.1117 10.4294 19.1117C10.3522 19.1117 10.2761 19.1242 10.1997 19.1345L8.64828 17.5832L10.863 12.0476H14.074L12.0787 14.0431C11.758 14.3631 11.582 14.7892 11.582 15.2424C11.582 16.1774 12.3427 16.9381 13.278 16.9381C13.7246 16.9381 14.1616 16.7572 14.4771 16.4414L15.9168 15.0015C16.2113 14.708 16.73 14.6966 17.0367 14.9776L18.3071 16.1421C18.7293 16.529 19.1984 16.8508 19.7004 17.1029L23.3585 20.7886C23.4721 20.9024 23.5368 21.0593 23.5368 21.2198C23.5368 21.5554 23.2635 21.8287 22.9276 21.8287ZM24.0802 19.9735L21.8466 17.723C22.0462 17.7418 22.2473 17.7532 22.45 17.7532V16.6664C21.1849 16.6664 19.9742 16.1955 19.0418 15.3406L17.7712 14.1766C17.054 13.518 15.8374 13.5443 15.1489 14.2336L13.7095 15.6733C13.5954 15.7863 13.4383 15.8513 13.278 15.8513C12.9421 15.8513 12.6688 15.5781 12.6688 15.2424C12.6688 15.0792 12.7317 14.9267 12.8469 14.8112L14.9183 12.7401C15.527 12.1314 16.441 11.8998 17.2681 12.1476L22.0685 13.5875L24.8674 19.1863L24.0802 19.9735ZM26.4966 20.0128L23.2019 13.423L25.6082 12.479L28.9196 18.801L26.4966 20.0128ZM32.7746 21.5382L31.8886 22.1288L26.626 12.0802L32.7746 9.6686V21.5382Z" fill="#E3B873"/>
</svg>
