<svg width="14" height="14" viewBox="0 0 14 14" fill="none" xmlns="http://www.w3.org/2000/svg">
<path d="M10 1H4C2.34315 1 1 2.34315 1 4V10C1 11.6569 2.34315 13 4 13H10C11.6569 13 13 11.6569 13 10V4C13 2.34315 11.6569 1 10 1Z" stroke="white" stroke-width="1.5"/>
<path d="M9.40002 6.62218C9.47407 7.12153 9.38877 7.63151 9.15627 8.07959C8.92377 8.52767 8.55591 8.89103 8.105 9.11798C7.65408 9.34494 7.14309 9.42394 6.64469 9.34374C6.14629 9.26354 5.68588 9.02823 5.32892 8.67128C4.97197 8.31432 4.73666 7.85391 4.65646 7.35551C4.57626 6.85711 4.65526 6.34612 4.88222 5.89521C5.10917 5.44429 5.47253 5.07643 5.92061 4.84393C6.36869 4.61143 6.87867 4.52613 7.37802 4.60018C7.88737 4.67571 8.35893 4.91306 8.72304 5.27716C9.08714 5.64127 9.32449 6.11283 9.40002 6.62218Z" stroke="white" stroke-width="1.5" stroke-linecap="round" stroke-linejoin="round"/>
</svg>
