<svg width="42" height="35" viewBox="0 0 42 35" fill="none" xmlns="http://www.w3.org/2000/svg">
<path d="M28.9936 15.7111L28.9936 15.7111C29.397 14.6563 30.4628 13.95 31.6441 13.95C32.8254 13.95 33.8913 14.6564 34.2945 15.7111L28.9936 15.7111ZM28.9936 15.7111C28.8604 16.0594 29.0425 16.4457 29.3975 16.5748M28.9936 15.7111L29.3975 16.5748M29.3975 16.5748C29.752 16.7038 30.1477 16.5283 30.2806 16.1807L29.3975 16.5748ZM30.2806 16.1807C30.4831 15.6511 31.03 15.2921 31.6441 15.2921C32.2582 15.2921 32.8051 15.6511 33.0075 16.1807C33.1109 16.4511 33.3733 16.6171 33.6511 16.6171C33.7308 16.6171 33.8117 16.6034 33.8906 16.5748C33.8906 16.5748 33.8906 16.5748 33.8906 16.5748L33.8735 16.5278L30.2806 16.1807Z" fill="white" stroke="white" stroke-width="0.1"/>
<path d="M38.0581 15.5196L38.0581 15.5195C37.6069 13.3617 36.5951 11.3276 35.1321 9.63698C33.7237 8.00938 31.9214 6.72811 29.9118 5.92046C29.5828 4.58444 28.8927 3.20682 27.5386 2.16943C26.2205 1.15967 24.8931 0.965018 24.8338 0.956699L24.8338 0.95669C24.6374 0.929396 24.4377 0.986384 24.2872 1.11368C24.1366 1.24101 24.0498 1.42597 24.0498 1.621V4.92454H21.8254C21.236 3.01044 19.4142 1.61243 17.2634 1.61243C15.0652 1.61243 13.2096 3.07238 12.6632 5.0515C9.51519 5.47724 6.61974 6.96796 4.46924 9.28146L4.50166 9.31159L4.46924 9.28146C2.19996 11.723 0.95 14.8838 0.95 18.1816C0.95 25.5712 4.88387 31.5815 6.0891 33.247C6.47046 33.7741 7.09453 34.0883 7.7582 34.0883H10.4692C11.5961 34.0883 12.515 33.1942 12.515 32.0924V31.2908C13.1849 31.3885 13.8649 31.4386 14.5457 31.4386H20.6528V32.0924C20.6528 33.1942 21.5717 34.0883 22.6986 34.0883H25.6765C26.634 34.0883 27.4756 33.4258 27.6767 32.5109L27.9969 31.0543C32.173 30.0528 35.5324 27.1963 37.1959 23.4897H39.6837C40.4359 23.4897 41.05 22.8928 41.05 22.1562V16.8568C41.05 16.5001 40.9075 16.165 40.6493 15.9133C40.3912 15.6617 40.0482 15.5232 39.6838 15.5232H39.6837H39.6837H39.6837H39.6836H39.6836H39.6836H39.6835L38.0592 15.5235C38.0587 15.5222 38.0584 15.5208 38.0581 15.5196ZM39.6762 22.1061H39.6761V22.1475H37.7111C38.0469 21.104 38.2538 20.0081 38.3138 18.8788C38.3337 18.5075 38.0411 18.1929 37.6633 18.1739C37.2857 18.1552 36.9615 18.4379 36.9418 18.8092C36.6746 23.8318 33.1861 28.1253 28.3218 29.5756L29.1936 25.6093C29.2736 25.2456 29.0358 24.8896 28.6656 24.8123C28.2961 24.7348 27.9301 24.9644 27.8503 25.3276L26.3334 32.2291C26.2678 32.5277 25.9919 32.7462 25.6765 32.7462H22.6984C22.3268 32.7462 22.0266 32.4516 22.0266 32.0923V29.4426C22.0266 29.0708 21.7178 28.7716 21.3396 28.7716C20.9614 28.7716 20.6527 29.0708 20.6527 29.4426V30.0964H14.5455C13.8637 30.0964 13.1831 30.0405 12.5148 29.9317V25.4682C12.5148 25.0964 12.2061 24.7972 11.8279 24.7972C11.4497 24.7972 11.1409 25.0964 11.1409 25.4682V32.0924C11.1409 32.4517 10.8407 32.7462 10.4691 32.7462H7.7582C7.53553 32.7462 7.33663 32.6461 7.21107 32.4725L7.21106 32.4725C6.06414 30.8872 2.32391 25.1733 2.32391 18.1815C2.32391 15.2181 3.44692 12.3778 5.48639 10.1836C7.34008 8.18921 9.80923 6.87502 12.5037 6.43286C12.5187 6.82085 12.5834 7.2044 12.695 7.57418H12.5074C12.1292 7.57418 11.8205 7.87341 11.8205 8.24521C11.8205 8.61701 12.1292 8.91624 12.5074 8.91624H22.0191C22.3974 8.91624 22.7061 8.61701 22.7061 8.24521C22.7061 7.87341 22.3974 7.57418 22.0191 7.57418H21.8315C21.9592 7.15163 22.0258 6.71117 22.0266 6.26652H24.0498V7.58274C24.0498 7.95454 24.3585 8.25377 24.7367 8.25377C25.1149 8.25377 25.4237 7.95454 25.4237 7.58274V2.50872C26.0183 2.73792 26.843 3.18639 27.5288 4.04185C28.2404 4.9294 28.8056 6.25881 28.8056 8.24528C28.8056 8.61709 29.1144 8.91631 29.4926 8.91631C29.8708 8.91631 30.1795 8.61709 30.1795 8.24528C30.1795 8.0074 30.1716 7.75754 30.1536 7.49968C31.6527 8.22454 32.9978 9.24962 34.0829 10.5035C35.3977 12.023 36.3068 13.8504 36.712 15.7882C36.8426 16.413 37.4049 16.8657 38.0487 16.8656L39.6762 16.8655V22.1061ZM17.2633 2.95457C19.1334 2.95457 20.6527 4.43776 20.6527 6.25811C20.6527 6.71293 20.5552 7.16121 20.371 7.57433L14.1555 7.57433C13.9714 7.16106 13.8737 6.71292 13.8737 6.25811C13.8737 4.43769 15.3931 2.95457 17.2633 2.95457Z" fill="white" stroke="white" stroke-width="0.1"/>
<path d="M20.9823 19.0023C20.3309 18.5605 19.4908 18.2898 18.7209 18.0775V14.9986C19.3158 15.0757 19.8192 15.248 20.1754 15.4608C20.5466 15.6825 20.7441 15.9388 20.7441 16.1672C20.7441 16.539 21.0528 16.8383 21.431 16.8383C21.8092 16.8383 22.118 16.539 22.118 16.1672C22.118 15.5116 21.7439 14.9255 21.1296 14.4823C20.5248 14.0459 19.6835 13.7449 18.7209 13.6471V13.621C18.7209 13.2492 18.4122 12.95 18.034 12.95C17.6558 12.95 17.347 13.2492 17.347 13.621V13.6471C16.3845 13.7449 15.5432 14.0459 14.9384 14.4823C14.3241 14.9255 13.95 15.5116 13.95 16.1672C13.95 17.0947 14.4215 17.7256 15.0856 18.176C15.7371 18.6178 16.5771 18.8885 17.347 19.1009V22.1798C16.7521 22.1026 16.2488 21.9303 15.8925 21.7176C15.5214 21.4959 15.3239 21.2396 15.3239 21.0111C15.3239 20.6393 15.0152 20.3401 14.637 20.3401C14.2587 20.3401 13.95 20.6393 13.95 21.0111C13.95 21.6667 14.3241 22.2529 14.9384 22.6961C15.5432 23.1324 16.3845 23.4335 17.347 23.5313V23.5573C17.347 23.9291 17.6558 24.2284 18.034 24.2284C18.4122 24.2284 18.7209 23.9291 18.7209 23.5573V23.5313C19.6835 23.4335 20.5248 23.1324 21.1296 22.6961C21.7439 22.2529 22.118 21.6667 22.118 21.0111C22.118 20.0836 21.6464 19.4527 20.9823 19.0023ZM17.347 14.9986V17.6948C16.5993 17.4625 16.0956 17.2413 15.7774 16.9999C15.4535 16.7542 15.3239 16.4893 15.3239 16.1672C15.3239 15.9388 15.5214 15.6825 15.8925 15.4608C16.2488 15.248 16.7521 15.0757 17.347 14.9986ZM20.1754 21.7176C19.8191 21.9304 19.3158 22.1027 18.7209 22.1799V19.4837C19.4686 19.7159 19.9724 19.9371 20.2906 20.1785C20.6145 20.4243 20.7441 20.6891 20.7441 21.0112C20.7441 21.2397 20.5466 21.496 20.1754 21.7176Z" fill="white" stroke="white" stroke-width="0.1"/>
</svg>
